<?xml version="1.0" encoding="UTF-8"?>
<svg version="1.1" xmlns="http://www.w3.org/2000/svg" width="256" height="256">
<path d="M0 0 C2.84168701 0.73883862 5.44164564 1.62866719 8.125 2.8125 C8.125 3.4725 8.125 4.1325 8.125 4.8125 C9.36894531 4.77769531 10.61289063 4.74289063 11.89453125 4.70703125 C21.07868142 4.52989847 29.3954297 4.516842 38.125 7.8125 C38.125 8.4725 38.125 9.1325 38.125 9.8125 C39.115 9.4825 40.105 9.1525 41.125 8.8125 C43.38671875 9.80859375 43.38671875 9.80859375 45.8125 11.25 C46.62074219 11.72308594 47.42898437 12.19617187 48.26171875 12.68359375 C48.87660156 13.05613281 49.49148437 13.42867187 50.125 13.8125 C50.125 14.4725 50.125 15.1325 50.125 15.8125 C51.115 15.8125 52.105 15.8125 53.125 15.8125 C53.125 16.4725 53.125 17.1325 53.125 17.8125 C53.74375 18.06 54.3625 18.3075 55 18.5625 C57.47568687 20.01878639 58.07625002 21.19062506 59.125 23.8125 C61.765 23.8125 64.405 23.8125 67.125 23.8125 C67.125 24.4725 67.125 25.1325 67.125 25.8125 C67.66769531 25.59078125 68.21039063 25.3690625 68.76953125 25.140625 C72.14813793 24.66997332 73.87188592 25.91355753 76.8125 27.5625 C77.78574219 28.09359375 78.75898438 28.6246875 79.76171875 29.171875 C82.125 30.8125 82.125 30.8125 83.125 33.8125 C85.14008358 34.54573796 85.14008358 34.54573796 87.125 34.8125 C87.228125 35.451875 87.33125 36.09125 87.4375 36.75 C87.664375 37.430625 87.89125 38.11125 88.125 38.8125 C89.115 39.1425 90.105 39.4725 91.125 39.8125 C91.125 40.4725 91.125 41.1325 91.125 41.8125 C91.785 42.1425 92.445 42.4725 93.125 42.8125 C94.46395632 44.47465268 95.79630142 46.14213607 97.125 47.8125 C98.2696875 48.9571875 98.2696875 48.9571875 99.4375 50.125 C102.19961137 52.88711137 104.75491309 55.75869504 107.30078125 58.71875 C108.48167781 60.07412593 109.68633858 61.40930442 110.91796875 62.71875 C118.47801766 70.86290865 123.32299195 79.37916856 123.1875 90.625 C123.17847656 91.60082031 123.16945312 92.57664062 123.16015625 93.58203125 C123.14275391 94.68611328 123.14275391 94.68611328 123.125 95.8125 C122.465 95.8125 121.805 95.8125 121.125 95.8125 C121.455 96.8025 121.785 97.7925 122.125 98.8125 C121.465 98.8125 120.805 98.8125 120.125 98.8125 C119.7228125 99.616875 119.7228125 99.616875 119.3125 100.4375 C118.125 102.8125 118.125 102.8125 116.5625 105.4375 C114.95651164 109.20808138 114.67582745 112.31950825 114.35546875 116.36328125 C113.72866219 123.02442895 111.30617517 128.64135299 107.125 133.8125 C102.21137387 137.469152 97.02615464 137.41145247 91.125 136.8125 C88 135.8125 88 135.8125 86.125 134.8125 C85.9084375 136.4521875 85.9084375 136.4521875 85.6875 138.125 C85.125 141.8125 85.125 141.8125 84.125 144.8125 C83.465 144.8125 82.805 144.8125 82.125 144.8125 C81.97998047 145.91464844 81.97998047 145.91464844 81.83203125 147.0390625 C80.28422913 153.11055149 75.18581886 157.39500555 70.171875 160.84375 C62.71210015 165.26713408 55.50074593 168.54111127 47.125 170.8125 C45.43687465 171.33130286 43.74941029 171.85225983 42.0625 172.375 C31.81872569 175.4372512 31.81872569 175.4372512 27.125 173.8125 C27.125 174.4725 27.125 175.1325 27.125 175.8125 C26.28195313 175.80089844 25.43890625 175.78929687 24.5703125 175.77734375 C23.47460938 175.76832031 22.37890625 175.75929687 21.25 175.75 C20.15945312 175.73839844 19.06890625 175.72679687 17.9453125 175.71484375 C15.17322454 175.61505697 15.17322454 175.61505697 13.125 176.8125 C11.02727309 176.57565986 8.92995232 176.33408776 6.8359375 176.06640625 C2.85926959 175.69395176 -1.08842095 175.79056182 -5.078125 175.875 C-7.84007673 175.81328041 -10.18694401 175.43095499 -12.875 174.8125 C-14.04675781 174.56371094 -15.21851562 174.31492188 -16.42578125 174.05859375 C-17.66714844 173.79175781 -18.90851563 173.52492187 -20.1875 173.25 C-22.06888672 172.84587891 -22.06888672 172.84587891 -23.98828125 172.43359375 C-24.94089844 172.22863281 -25.89351563 172.02367187 -26.875 171.8125 C-26.875 171.1525 -26.875 170.4925 -26.875 169.8125 C-27.865 170.1425 -28.855 170.4725 -29.875 170.8125 C-31.85546875 170.17578125 -31.85546875 170.17578125 -34.0625 169.125 C-34.85011719 168.75117188 -35.63773437 168.37734375 -36.44921875 167.9921875 C-37.24972656 167.60289062 -38.05023438 167.21359375 -38.875 166.8125 C-40.02935547 166.29042969 -40.02935547 166.29042969 -41.20703125 165.7578125 C-41.92246094 165.42523438 -42.63789062 165.09265625 -43.375 164.75 C-44.0246875 164.44964844 -44.674375 164.14929688 -45.34375 163.83984375 C-46.875 162.8125 -46.875 162.8125 -47.875 159.8125 C-49.81118425 159.14093384 -49.81118425 159.14093384 -51.875 158.8125 C-52.535 158.4825 -53.195 158.1525 -53.875 157.8125 C-54.82375 157.73 -55.7725 157.6475 -56.75 157.5625 C-61.37239739 156.45312463 -62.56951824 153.84276427 -65.04296875 149.99609375 C-66.0703746 148.31647805 -66.98125349 146.56689131 -67.875 144.8125 C-67.545 144.1525 -67.215 143.4925 -66.875 142.8125 C-67.535 142.8125 -68.195 142.8125 -68.875 142.8125 C-68.545 141.4925 -68.215 140.1725 -67.875 138.8125 C-68.535 138.8125 -69.195 138.8125 -69.875 138.8125 C-69.875 137.1625 -69.875 135.5125 -69.875 133.8125 C-72.84565509 134.15477572 -72.84565509 134.15477572 -75.875 134.8125 C-76.205 135.4725 -76.535 136.1325 -76.875 136.8125 C-87.61236044 137.67225306 -87.61236044 137.67225306 -91.375 134.75 C-96.70350442 128.48900731 -97.30694057 122.62631922 -97.31445312 114.68554688 C-97.45684206 109.57427502 -98.84951364 106.86051654 -101.875 102.8125 C-101.875 102.1525 -101.875 101.4925 -101.875 100.8125 C-102.865 100.4825 -103.855 100.1525 -104.875 99.8125 C-107.52674921 94.50900158 -107.65904503 88.5976866 -106.875 82.8125 C-105.51001437 78.96961364 -103.8156839 75.39583421 -101.875 71.8125 C-101.215 71.8125 -100.555 71.8125 -99.875 71.8125 C-99.545 70.4925 -99.215 69.1725 -98.875 67.8125 C-98.215 67.8125 -97.555 67.8125 -96.875 67.8125 C-96.61074219 67.22984375 -96.34648438 66.6471875 -96.07421875 66.046875 C-94.82717503 63.72339289 -93.45186849 62.01662895 -91.6875 60.0625 C-89.7431256 57.89846824 -87.81002903 55.73578729 -85.9296875 53.515625 C-85.31351563 52.78859375 -84.69734375 52.0615625 -84.0625 51.3125 C-83.49917969 50.6421875 -82.93585938 49.971875 -82.35546875 49.28125 C-80.875 47.8125 -80.875 47.8125 -78.875 47.8125 C-78.6275 47.07 -78.38 46.3275 -78.125 45.5625 C-76.77034961 42.58226913 -75.3648459 40.91330748 -72.875 38.8125 C-72.215 38.8125 -71.555 38.8125 -70.875 38.8125 C-70.215 37.1625 -69.555 35.5125 -68.875 33.8125 C-67.885 33.8125 -66.895 33.8125 -65.875 33.8125 C-65.64425781 33.20792969 -65.41351563 32.60335937 -65.17578125 31.98046875 C-63.51739277 29.21648796 -61.95399548 28.49921899 -59.0625 27.125 C-58.21042969 26.70863281 -57.35835937 26.29226562 -56.48046875 25.86328125 C-52.88882794 24.41477844 -49.52820744 23.87653995 -45.6875 23.5 C-44.2953125 23.1596875 -44.2953125 23.1596875 -42.875 22.8125 C-41.64972052 20.86228917 -41.64972052 20.86228917 -40.875 18.8125 C-39.885 18.4825 -38.895 18.1525 -37.875 17.8125 C-37.875 17.1525 -37.875 16.4925 -37.875 15.8125 C-27.13781247 10.25292859 -17.09552247 6.36811736 -4.875 6.8125 C-5.101875 6.214375 -5.32875 5.61625 -5.5625 5 C-5.875 2.8125 -5.875 2.8125 -4.8125 1 C-2.875 -0.1875 -2.875 -0.1875 0 0 Z " fill="#2C2C2C" transform="translate(119.875,40.1875)"/>
<path d="M0 0 C0 3.63 0 7.26 0 11 C1.32 10.67 2.64 10.34 4 10 C4.316962 16.96142464 4.07747153 23.31891392 2.5 30.125 C-0.47822579 43.90463799 -1.16081774 59.17929053 6.578125 71.515625 C9.70131879 75.76429403 13.17655483 79.10373533 17.2421875 82.421875 C25.26139782 89.62134382 31.214959 99.73776519 32.23828125 110.5078125 C32.49684695 119.62565574 30.54981028 127.34349213 24.625 134.4375 C18.67410979 140.62947105 13.81560631 142.81272642 5.26464844 143.14526367 C3.87959978 143.1584919 2.49448509 143.16577693 1.109375 143.16796875 C0.36471985 143.17129715 -0.3799353 143.17462555 -1.14715576 143.17805481 C-2.71707547 143.18309569 -4.2870058 143.18546402 -5.85693359 143.18530273 C-8.22902605 143.18748074 -10.60064637 143.20564315 -12.97265625 143.22460938 C-34.71040237 143.30863214 -34.71040237 143.30863214 -41.46875 136.7734375 C-48.73478968 128.35817726 -50.58943073 119.88318458 -50.30859375 108.98046875 C-49.40654906 97.34523403 -42.59880258 89.42675463 -34.5 81.5625 C-24.52342355 71.72189052 -18.8729909 61.10099336 -18.70094299 46.95690918 C-18.72462746 42.67758562 -18.81575144 38.40256573 -18.9375 34.125 C-19.00591496 31.50250698 -19.06775598 28.88057726 -19.11073303 26.25753784 C-19.13765937 24.6399633 -19.178899 23.0225368 -19.23728943 21.40579224 C-19.33011487 16.18899538 -18.55506503 12.59116152 -16 8 C-15.01 7.67 -14.02 7.34 -13 7 C-12.505 7.99 -12.505 7.99 -12 9 C-11.46890625 8.3503125 -10.9378125 7.700625 -10.390625 7.03125 C-9.68421875 6.1959375 -8.9778125 5.360625 -8.25 4.5 C-7.55390625 3.6646875 -6.8578125 2.829375 -6.140625 1.96875 C-4 0 -4 0 0 0 Z " fill="#F9F5F2" transform="translate(137,68)"/>
<path d="M0 0 C2.84168701 0.73883862 5.44164564 1.62866719 8.125 2.8125 C8.125 3.4725 8.125 4.1325 8.125 4.8125 C9.36894531 4.77769531 10.61289063 4.74289063 11.89453125 4.70703125 C21.07868142 4.52989847 29.3954297 4.516842 38.125 7.8125 C38.125 8.4725 38.125 9.1325 38.125 9.8125 C39.115 9.4825 40.105 9.1525 41.125 8.8125 C43.38671875 9.80859375 43.38671875 9.80859375 45.8125 11.25 C46.62074219 11.72308594 47.42898437 12.19617187 48.26171875 12.68359375 C48.87660156 13.05613281 49.49148437 13.42867187 50.125 13.8125 C50.125 14.4725 50.125 15.1325 50.125 15.8125 C51.115 15.8125 52.105 15.8125 53.125 15.8125 C53.125 16.4725 53.125 17.1325 53.125 17.8125 C53.74375 18.06 54.3625 18.3075 55 18.5625 C57.47568687 20.01878639 58.07625002 21.19062506 59.125 23.8125 C61.765 23.8125 64.405 23.8125 67.125 23.8125 C67.125 24.4725 67.125 25.1325 67.125 25.8125 C67.66769531 25.59078125 68.21039063 25.3690625 68.76953125 25.140625 C72.14813793 24.66997332 73.87188592 25.91355753 76.8125 27.5625 C77.78574219 28.09359375 78.75898438 28.6246875 79.76171875 29.171875 C82.125 30.8125 82.125 30.8125 83.125 33.8125 C85.14008358 34.54573796 85.14008358 34.54573796 87.125 34.8125 C87.228125 35.451875 87.33125 36.09125 87.4375 36.75 C87.664375 37.430625 87.89125 38.11125 88.125 38.8125 C89.115 39.1425 90.105 39.4725 91.125 39.8125 C91.125 40.4725 91.125 41.1325 91.125 41.8125 C91.785 42.1425 92.445 42.4725 93.125 42.8125 C94.46395632 44.47465268 95.79630142 46.14213607 97.125 47.8125 C98.2696875 48.9571875 98.2696875 48.9571875 99.4375 50.125 C102.19961137 52.88711137 104.75491309 55.75869504 107.30078125 58.71875 C108.48167781 60.07412593 109.68633858 61.40930442 110.91796875 62.71875 C118.47801766 70.86290865 123.32299195 79.37916856 123.1875 90.625 C123.17847656 91.60082031 123.16945312 92.57664062 123.16015625 93.58203125 C123.14275391 94.68611328 123.14275391 94.68611328 123.125 95.8125 C122.465 95.8125 121.805 95.8125 121.125 95.8125 C121.455 96.8025 121.785 97.7925 122.125 98.8125 C121.465 98.8125 120.805 98.8125 120.125 98.8125 C119.7228125 99.616875 119.7228125 99.616875 119.3125 100.4375 C118.125 102.8125 118.125 102.8125 116.5625 105.4375 C114.95651164 109.20808138 114.67582745 112.31950825 114.35546875 116.36328125 C113.72866219 123.02442895 111.30617517 128.64135299 107.125 133.8125 C102.21137387 137.469152 97.02615464 137.41145247 91.125 136.8125 C88 135.8125 88 135.8125 86.125 134.8125 C85.9084375 136.4521875 85.9084375 136.4521875 85.6875 138.125 C85.125 141.8125 85.125 141.8125 84.125 144.8125 C83.465 144.8125 82.805 144.8125 82.125 144.8125 C81.97998047 145.91464844 81.97998047 145.91464844 81.83203125 147.0390625 C80.28422913 153.11055149 75.18581886 157.39500555 70.171875 160.84375 C62.71210015 165.26713408 55.50074593 168.54111127 47.125 170.8125 C45.43687465 171.33130286 43.74941029 171.85225983 42.0625 172.375 C31.81872569 175.4372512 31.81872569 175.4372512 27.125 173.8125 C27.125 174.4725 27.125 175.1325 27.125 175.8125 C26.28195313 175.80089844 25.43890625 175.78929687 24.5703125 175.77734375 C23.47460938 175.76832031 22.37890625 175.75929687 21.25 175.75 C20.15945312 175.73839844 19.06890625 175.72679687 17.9453125 175.71484375 C15.17322454 175.61505697 15.17322454 175.61505697 13.125 176.8125 C11.02727309 176.57565986 8.92995232 176.33408776 6.8359375 176.06640625 C2.85926959 175.69395176 -1.08842095 175.79056182 -5.078125 175.875 C-7.84007673 175.81328041 -10.18694401 175.43095499 -12.875 174.8125 C-14.04675781 174.56371094 -15.21851562 174.31492188 -16.42578125 174.05859375 C-17.66714844 173.79175781 -18.90851563 173.52492187 -20.1875 173.25 C-22.06888672 172.84587891 -22.06888672 172.84587891 -23.98828125 172.43359375 C-24.94089844 172.22863281 -25.89351563 172.02367187 -26.875 171.8125 C-26.875 171.1525 -26.875 170.4925 -26.875 169.8125 C-27.865 170.1425 -28.855 170.4725 -29.875 170.8125 C-31.85546875 170.17578125 -31.85546875 170.17578125 -34.0625 169.125 C-34.85011719 168.75117188 -35.63773437 168.37734375 -36.44921875 167.9921875 C-37.24972656 167.60289062 -38.05023438 167.21359375 -38.875 166.8125 C-40.02935547 166.29042969 -40.02935547 166.29042969 -41.20703125 165.7578125 C-41.92246094 165.42523438 -42.63789062 165.09265625 -43.375 164.75 C-44.0246875 164.44964844 -44.674375 164.14929688 -45.34375 163.83984375 C-46.875 162.8125 -46.875 162.8125 -47.875 159.8125 C-49.81118425 159.14093384 -49.81118425 159.14093384 -51.875 158.8125 C-52.535 158.4825 -53.195 158.1525 -53.875 157.8125 C-54.82375 157.73 -55.7725 157.6475 -56.75 157.5625 C-61.37239739 156.45312463 -62.56951824 153.84276427 -65.04296875 149.99609375 C-66.0703746 148.31647805 -66.98125349 146.56689131 -67.875 144.8125 C-67.545 144.1525 -67.215 143.4925 -66.875 142.8125 C-67.535 142.8125 -68.195 142.8125 -68.875 142.8125 C-68.545 141.4925 -68.215 140.1725 -67.875 138.8125 C-68.535 138.8125 -69.195 138.8125 -69.875 138.8125 C-69.875 137.1625 -69.875 135.5125 -69.875 133.8125 C-72.84565509 134.15477572 -72.84565509 134.15477572 -75.875 134.8125 C-76.205 135.4725 -76.535 136.1325 -76.875 136.8125 C-87.61236044 137.67225306 -87.61236044 137.67225306 -91.375 134.75 C-96.70350442 128.48900731 -97.30694057 122.62631922 -97.31445312 114.68554688 C-97.45684206 109.57427502 -98.84951364 106.86051654 -101.875 102.8125 C-101.875 102.1525 -101.875 101.4925 -101.875 100.8125 C-102.865 100.4825 -103.855 100.1525 -104.875 99.8125 C-107.52674921 94.50900158 -107.65904503 88.5976866 -106.875 82.8125 C-105.51001437 78.96961364 -103.8156839 75.39583421 -101.875 71.8125 C-101.215 71.8125 -100.555 71.8125 -99.875 71.8125 C-99.545 70.4925 -99.215 69.1725 -98.875 67.8125 C-98.215 67.8125 -97.555 67.8125 -96.875 67.8125 C-96.61074219 67.22984375 -96.34648438 66.6471875 -96.07421875 66.046875 C-94.82717503 63.72339289 -93.45186849 62.01662895 -91.6875 60.0625 C-89.7431256 57.89846824 -87.81002903 55.73578729 -85.9296875 53.515625 C-85.31351563 52.78859375 -84.69734375 52.0615625 -84.0625 51.3125 C-83.49917969 50.6421875 -82.93585938 49.971875 -82.35546875 49.28125 C-80.875 47.8125 -80.875 47.8125 -78.875 47.8125 C-78.6275 47.07 -78.38 46.3275 -78.125 45.5625 C-76.77034961 42.58226913 -75.3648459 40.91330748 -72.875 38.8125 C-72.215 38.8125 -71.555 38.8125 -70.875 38.8125 C-70.215 37.1625 -69.555 35.5125 -68.875 33.8125 C-67.885 33.8125 -66.895 33.8125 -65.875 33.8125 C-65.64425781 33.20792969 -65.41351563 32.60335937 -65.17578125 31.98046875 C-63.51739277 29.21648796 -61.95399548 28.49921899 -59.0625 27.125 C-58.21042969 26.70863281 -57.35835937 26.29226562 -56.48046875 25.86328125 C-52.88882794 24.41477844 -49.52820744 23.87653995 -45.6875 23.5 C-44.2953125 23.1596875 -44.2953125 23.1596875 -42.875 22.8125 C-41.64972052 20.86228917 -41.64972052 20.86228917 -40.875 18.8125 C-39.885 18.4825 -38.895 18.1525 -37.875 17.8125 C-37.875 17.1525 -37.875 16.4925 -37.875 15.8125 C-27.13781247 10.25292859 -17.09552247 6.36811736 -4.875 6.8125 C-5.101875 6.214375 -5.32875 5.61625 -5.5625 5 C-5.875 2.8125 -5.875 2.8125 -4.8125 1 C-2.875 -0.1875 -2.875 -0.1875 0 0 Z M0.125 5.8125 C1.115 9.2775 1.115 9.2775 2.125 12.8125 C1.50625 12.6475 0.8875 12.4825 0.25 12.3125 C-12.57696207 10.26018607 -25.25822884 13.27406776 -35.875 20.8125 C-37.41437289 22.61379126 -37.41437289 22.61379126 -38.6875 24.5 C-41.45175421 28.17502004 -44.11333973 28.49721366 -48.5625 29.25 C-62.26212204 31.68197072 -69.63357394 41.53328784 -77.875 51.8125 C-81.37212369 55.96316171 -84.93635394 59.88968749 -88.875 63.625 C-95.74593721 70.38899655 -102.10941353 79.33865417 -102.25 89.25 C-102.16279551 94.24077977 -101.1776364 96.94369736 -97.875 100.8125 C-94.4480603 105.25482924 -93.77556659 108.40337374 -93.5 114 C-93.0405444 120.34048727 -92.3818906 125.72709619 -88.25 130.8125 C-84.36819172 132.44694559 -80.99699619 132.73604445 -76.875 131.8125 C-67.18139048 126.32355958 -62.56283076 115.52581395 -59.48974609 105.32983398 C-57.31536278 97.03275114 -56.99607027 88.50125466 -56.68261719 79.96142578 C-56.26189965 70.6143521 -55.09807344 59.56956871 -47.875 52.8125 C-46.885 52.4825 -45.895 52.1525 -44.875 51.8125 C-45.28492188 52.46476562 -45.69484375 53.11703125 -46.1171875 53.7890625 C-46.65601563 54.66304687 -47.19484375 55.53703125 -47.75 56.4375 C-48.28367188 57.29601562 -48.81734375 58.15453125 -49.3671875 59.0390625 C-52.02704405 63.93154475 -53.11214838 68.41963299 -53.3671875 73.9609375 C-53.46132935 75.70479736 -53.46132935 75.70479736 -53.55737305 77.48388672 C-53.62093994 78.7060791 -53.68450684 79.92827148 -53.75 81.1875 C-54.62566084 95.00151462 -56.10885849 106.94334956 -62.625 119.3125 C-66.90953352 127.48536287 -66.5987757 131.59222944 -64.1875 140.5 C-62.55375996 145.54761259 -61.11691583 148.63106313 -56.875 151.8125 C-56.875 150.4925 -56.875 149.1725 -56.875 147.8125 C-56.42511719 148.23660156 -55.97523437 148.66070312 -55.51171875 149.09765625 C-38.02635927 165.04122051 -16.60672864 171.61758042 6.7019043 171.22412109 C8.95472114 171.1872179 11.20589369 171.18310675 13.45898438 171.18359375 C24.87042923 171.12988531 35.73541109 170.10796406 46.5 166.125 C47.21406006 165.86444824 47.92812012 165.60389648 48.66381836 165.33544922 C66.32238121 158.8353462 66.32238121 158.8353462 78.45703125 145.1875 C79.45968357 142.74995656 80.33484688 140.32581191 81.125 137.8125 C81.455 136.8225 81.785 135.8325 82.125 134.8125 C83.03839395 129.44631054 81.74383136 126.84748615 78.875 122.25 C70.26257887 108.37249551 69.90882829 93.15663008 69.78320312 77.30273438 C69.55818768 67.56427513 67.55758738 59.96138108 62.125 51.8125 C67.89965846 55.66227231 70.76577784 61.10273471 72.125 67.8125 C72.22722012 69.95278874 72.27974099 72.09565619 72.30078125 74.23828125 C72.64788968 103.79610867 72.64788968 103.79610867 87.125 128.8125 C90.88332927 131.94444106 94.22098776 132.35382777 98.9765625 132.1484375 C102.45678639 131.60425704 103.88321802 130.51582533 106.125 127.8125 C108.70623915 122.68383706 109.31972795 117.40079727 109.9375 111.75 C110.76049487 105.18732535 112.71362984 101.59684315 117.125 96.8125 C119.55420944 91.95408112 118.84683817 85.21393236 117.32421875 80.1484375 C114.17121026 73.32233664 109.28172824 68.18902321 104.125 62.8125 C99.50609077 57.84840539 95.08807429 52.82261356 90.98364258 47.42626953 C84.11560172 38.41911889 77.4215451 31.83185307 66.125 28.8125 C63.03130003 28.52833793 60.24008938 28.61152649 57.125 28.8125 C56.8671875 28.22339844 56.609375 27.63429688 56.34375 27.02734375 C51.83760693 18.83829528 42.23446602 14.81621216 33.9375 11.5625 C26.81256836 9.66251823 20.05269124 9.84638872 12.74609375 10.16796875 C8.48989796 9.75015449 6.53081011 8.2996698 3.125 5.8125 C2.135 5.8125 1.145 5.8125 0.125 5.8125 Z " fill="#060606" transform="translate(119.875,40.1875)"/>
<path d="M0 0 C4.29 1.32 8.58 2.64 13 4 C13 2.68 13 1.36 13 0 C20.14062585 0.49245695 24.07009147 2.14927818 29.3125 7.25 C31.56673986 10.92357607 31.70987885 13.72071301 32 18 C31.01 18.33 30.02 18.66 29 19 C28.34 18.67 27.68 18.34 27 18 C27.12375 19.27875 27.2475 20.5575 27.375 21.875 C27.35102283 29.4997396 22.85888475 35.45020615 17.6875 40.75 C11.64051451 45.70074835 3.48062569 48.1069437 -4 50 C-6.23925781 49.56054688 -6.23925781 49.56054688 -8 49 C-7.20335937 48.36384766 -7.20335937 48.36384766 -6.390625 47.71484375 C0.37854308 42.09445784 4.23163009 36.84184957 6 28 C6.86404605 18.02557369 4.50112262 10.78790607 0 2 C0 1.34 0 0.68 0 0 Z " fill="#B26E37" transform="translate(162,159)"/>
<path d="M0 0 C0.66 0.33 1.32 0.66 2 1 C1.401875 1.825 0.80375 2.65 0.1875 3.5 C-5.50320749 12.28920659 -5.92195429 20.81797733 -5 31 C-3.02789941 38.9794224 1.15474723 44.36350626 7 50 C-2.97125519 48.57553497 -15.59453157 44.03091392 -21.875 35.75 C-23.0546875 33.859375 -23.0546875 33.859375 -24 32 C-24.54140625 31.0409375 -24.54140625 31.0409375 -25.09375 30.0625 C-26.11672021 27.7343609 -26.40202613 25.77703719 -26.625 23.25 C-26.69976562 22.45078125 -26.77453125 21.6515625 -26.8515625 20.828125 C-26.90054688 20.22484375 -26.94953125 19.6215625 -27 19 C-28.32 19.33 -29.64 19.66 -31 20 C-31.5694756 14.53303424 -30.6801995 11.34064153 -27.55078125 6.80078125 C-24.94955101 3.7802091 -22.71369874 2.53670293 -19 1 C-15.0625 0.75 -15.0625 0.75 -12 1 C-12.33 2.32 -12.66 3.64 -13 5 C-11.39402675 4.54803755 -9.79027492 4.08817673 -8.1875 3.625 C-7.29417969 3.36976563 -6.40085937 3.11453125 -5.48046875 2.8515625 C-2.79532104 2.04733339 -2.79532104 2.04733339 0 0 Z " fill="#B16E37" transform="translate(93,158)"/>
<path d="M0 0 C4.76757143 2.79835714 4.76757143 2.79835714 5.875 4.6875 C6.47148786 8.66408576 6.76265549 11.14706693 4.73828125 14.66015625 C1.64453314 18.484711 -1.47872724 20.89234916 -6.125 22.6875 C-6.785 22.6875 -7.445 22.6875 -8.125 22.6875 C-8.17841858 25.83919612 -8.20978943 27.79650946 -7.125 30.6875 C-3.37701853 34.06630128 0.61425333 35.5165513 5.5625 36.1875 C9.18684956 35.64042837 11.66013987 34.40209207 14.875 32.6875 C16.195 32.6875 17.515 32.6875 18.875 32.6875 C15.98154858 36.91639053 13.90369554 38.60287939 8.875 39.6875 C2.90256738 40.49148131 -0.72657364 38.65353699 -5.79296875 35.78125 C-8.29928138 34.40441457 -8.29928138 34.40441457 -12.125 34.6875 C-13.176875 35.326875 -14.22875 35.96625 -15.3125 36.625 C-19.43278448 39.09540611 -23.32686259 39.92486369 -28.125 39.6875 C-31.87059754 38.67517634 -34.90103986 36.83680676 -38.125 34.6875 C-38.125 33.6975 -38.125 32.7075 -38.125 31.6875 C-35.55582078 32.16327393 -34.00608877 32.76784543 -31.8125 34.25 C-28.24602924 36.15764715 -26.13756975 36.1635676 -22.125 35.6875 C-18.30722703 34.21433761 -15.02937128 32.59187128 -12.125 29.6875 C-11.72452556 27.36474823 -11.3852896 25.03010643 -11.125 22.6875 C-12.1459375 22.5946875 -12.1459375 22.5946875 -13.1875 22.5 C-18.1672519 21.12262181 -21.81556208 18.29261744 -25.0625 14.3125 C-26.49862121 10.76443583 -26.73454727 8.48023856 -26.125 4.6875 C-20.11869754 -2.67872 -8.46058085 -3.4677488 0 0 Z " fill="#0B0B0B" transform="translate(137.125,158.3125)"/>
<path d="M0 0 C3.6578218 2.03993908 5.66946174 3.50419262 8 7 C8.61414419 11.25912987 8.43727155 14.97241187 6.75 18.9375 C4.80470008 21.2301749 3.87852015 22.14422374 1 23 C-1.69107389 23.14979106 -4.29988077 23.09000397 -7 23 C-7.33 22.34 -7.66 21.68 -8 21 C-7.34 20.67 -6.68 20.34 -6 20 C-6.495 19.484375 -6.99 18.96875 -7.5 18.4375 C-9.57700386 15.06236872 -9.47919182 12.90199054 -9 9 C-7 6.0625 -7 6.0625 -5 4 C-8.62793998 5.86566488 -8.62793998 5.86566488 -11 9 C-11.22467831 10.53668865 -11.40796805 12.07968054 -11.5625 13.625 C-11.64628906 14.44226563 -11.73007813 15.25953125 -11.81640625 16.1015625 C-11.87699219 16.72804687 -11.93757813 17.35453125 -12 18 C-14 15 -14 15 -14 12 C-14.66 11.67 -15.32 11.34 -16 11 C-12.13800203 4.08127172 -8.80602169 -1.2580031 0 0 Z " fill="#070707" transform="translate(95,125)"/>
<path d="M0 0 C0 0.66 0 1.32 0 2 C1.1446875 2.37125 1.1446875 2.37125 2.3125 2.75 C5.37754038 4.17560018 6.46110282 5.00320024 8 8 C8.5 11.4375 8.5 11.4375 8 15 C5.75700764 17.8660458 4.14050868 19.59928073 0.6875 20.8125 C0.130625 20.874375 -0.42625 20.93625 -1 21 C-1 20.34 -1 19.68 -1 19 C-2.051875 19.12375 -2.051875 19.12375 -3.125 19.25 C-7.16451637 18.89873771 -9.03885613 17.75455243 -12 15 C-12.64274301 10.50079895 -12.55856077 8.22351407 -10.6875 4.125 C-7.43580069 0.03026754 -4.98910696 -0.22173809 0 0 Z " fill="#060505" transform="translate(164,126)"/>
<path d="M0 0 C2 2 2 2 2.125 5.125 C2.08375 6.07375 2.0425 7.0225 2 8 C0.02 8.99 0.02 8.99 -2 10 C-2.33 9.01 -2.66 8.02 -3 7 C-3.99 6.67 -4.98 6.34 -6 6 C-6 7.65 -6 9.3 -6 11 C-4.68 11.66 -3.36 12.32 -2 13 C-6.625 16 -6.625 16 -10 16 C-10 14.02 -10 12.04 -10 10 C-10.66 10 -11.32 10 -12 10 C-12 11.98 -12 13.96 -12 16 C-15.68754757 15.50168276 -17.60490662 14.89932357 -20 12 C-18.35 11.67 -16.7 11.34 -15 11 C-15.79117904 9.00016466 -15.79117904 9.00016466 -17 7 C-17.99 6.67 -18.98 6.34 -20 6 C-20 7.32 -20 8.64 -20 10 C-21.32 9.34 -22.64 8.68 -24 8 C-24.25 5.1875 -24.25 5.1875 -24 2 C-17.78219283 -4.21780717 -7.58379979 -2.84392492 0 0 Z " fill="#2A2A2A" transform="translate(138,162)"/>
<path d="M0 0 C0.66 0 1.32 0 2 0 C2 1.98 2 3.96 2 6 C3.65 5.67 5.3 5.34 7 5 C6.34 6.32 5.68 7.64 5 9 C4.34 9 3.68 9 3 9 C2.94658142 12.15169612 2.91521057 14.10900946 4 17 C7.74798147 20.37880128 11.73925333 21.8290513 16.6875 22.5 C20.31184956 21.95292837 22.78513987 20.71459207 26 19 C27.32 19 28.64 19 30 19 C27.10654858 23.22889053 25.02869554 24.91537939 20 26 C14.02756738 26.80398131 10.39842636 24.96603699 5.33203125 22.09375 C2.82571862 20.71691457 2.82571862 20.71691457 -1 21 C-2.051875 21.639375 -3.10375 22.27875 -4.1875 22.9375 C-8.30778448 25.40790611 -12.20186259 26.23736369 -17 26 C-20.74559754 24.98767634 -23.77603986 23.14930676 -27 21 C-27 20.01 -27 19.02 -27 18 C-24.43082078 18.47577393 -22.88108877 19.08034543 -20.6875 20.5625 C-17.12102924 22.47014715 -15.01256975 22.4760676 -11 22 C-7.18222703 20.52683761 -3.90437128 18.90437128 -1 16 C-0.59952556 13.67724823 -0.2602896 11.34260643 0 9 C-2.475 8.505 -2.475 8.505 -5 8 C-4.34 7.34 -3.68 6.68 -3 6 C-2.01 6 -1.02 6 0 6 C0 4.02 0 2.04 0 0 Z " fill="#111110" transform="translate(126,172)"/>
<path d="M0 0 C2.375 1.0625 2.375 1.0625 4 3 C4.72083842 7.3250305 4.5195399 9.25316139 2 12.875 C-2.0048796 15.71178972 -4.09270019 16.07789365 -9 16 C-11.5625 14.4375 -11.5625 14.4375 -13 12 C-13 7.13427128 -11.2822844 4.48121073 -8 1 C-5.19084526 -0.40457737 -3.11189466 -0.24895157 0 0 Z " fill="#AD6C35" transform="translate(162,103)"/>
<path d="M0 0 C2.69990662 1.79993774 4.5418865 3.083773 6 6 C6.44778928 12.15710254 6.44778928 12.15710254 4.9375 15 C1.6805923 16.68098462 -0.53807607 15.93882683 -4 15 C-6.70005757 13.57333203 -7.88044169 12.37804103 -10 10 C-10.625 6.375 -10.625 6.375 -10 3 C-7.14849591 -0.39987027 -4.2647477 -0.60924967 0 0 Z " fill="#AF6D35" transform="translate(101,103)"/>
<path d="M0 0 C3.71693054 -0.35399338 5.75121713 -0.12439143 9.125 1.5625 C12.59584737 4.50517494 14.03485113 6.91853696 16 11 C16 11.66 16 12.32 16 13 C15.34 13 14.68 13 14 13 C13.95875 13.9075 13.9175 14.815 13.875 15.75 C13 19 13 19 10.4375 21.375 C5.98237889 23.48105725 3.88696305 23.69813758 -1 23 C-4 20.5 -4 20.5 -6 18 C-2.61976483 18 -0.16531063 18.87455622 3 20 C3 20.66 3 21.32 3 22 C4.134375 21.38125 5.26875 20.7625 6.4375 20.125 C7.07558594 19.77695313 7.71367187 19.42890625 8.37109375 19.0703125 C10.16618315 18.08589976 10.16618315 18.08589976 11 16 C11.50070321 12.62642666 11.50070321 12.62642666 11 9 C8.8272578 6.36983839 7.05326212 4.52663106 4 3 C4 2.34 4 1.68 4 1 C2.68 0.67 1.36 0.34 0 0 Z " fill="#100F0F" transform="translate(160,125)"/>
<path d="M0 0 C2 3 2 3 4 6 C6.95769177 6.50010524 6.95769177 6.50010524 10 6 C11.87890434 4.62493901 11.87890434 4.62493901 13 3 C13.75 5.25 13.75 5.25 14 8 C12.15554062 10.28967371 10.62637553 11.68681224 8 13 C5.3276379 13.13415472 2.67749512 13.04318541 0 13 C-0.33 12.34 -0.66 11.68 -1 11 C-0.34 10.67 0.32 10.34 1 10 C0.649375 9.46375 0.29875 8.9275 -0.0625 8.375 C-1.28924249 5.26725237 -0.72856431 3.20568297 0 0 Z " fill="#241A12" transform="translate(88,135)"/>
<path d="M0 0 C2.56917922 0.47577393 4.11891123 1.08034543 6.3125 2.5625 C9.82152551 4.43942062 12.06159903 4.41456852 16 4 C18.02237052 3.04605164 20.0282696 2.05464649 22 1 C22.66 1.33 23.32 1.66 24 2 C23.02203557 4.93389328 22.27519918 5.85552043 19.5 7.3125 C13.61553177 8.46837769 7.60282726 8.34593623 2.375 5.125 C1.59125 4.42375 0.8075 3.7225 0 3 C0 2.01 0 1.02 0 0 Z " fill="#171717" transform="translate(99,190)"/>
<path d="M0 0 C1.98 0.495 1.98 0.495 4 1 C4 1.99 4 2.98 4 4 C5.98 2.68 7.96 1.36 10 0 C9.92403834 3.19038983 9.61211245 5.31714088 7.4453125 7.734375 C2.55 12 2.55 12 0 12 C0.375 10.0625 0.375 10.0625 1 8 C1.66 7.67 2.32 7.34 3 7 C1.68 6.34 0.36 5.68 -1 5 C-0.67 3.35 -0.34 1.7 0 0 Z " fill="#070707" transform="translate(132,168)"/>
<path d="M0 0 C3.87467873 1.25665256 6.10609704 2.31187319 8 6 C8.5 9.4375 8.5 9.4375 8 13 C5.5 15.9375 5.5 15.9375 3 18 C2.34 17.67 1.68 17.34 1 17 C1.495 16.505 1.99 16.01 2.5 15.5 C4.56445831 12.05923616 4.72766606 8.86811957 4 5 C2.16343011 2.03268602 2.16343011 2.03268602 0 0 Z " fill="#E4E3E1" transform="translate(164,128)"/>
<path d="M0 0 C0.33 0 0.66 0 1 0 C2.34516765 6.35897436 2.34516765 6.35897436 0.6875 9.4375 C-1 11 -1 11 -3 11 C-3 10.34 -3 9.68 -3 9 C-3.763125 9.061875 -4.52625 9.12375 -5.3125 9.1875 C-8 9 -8 9 -9.8125 7.5 C-10.204375 7.005 -10.59625 6.51 -11 6 C-10.67 5.34 -10.34 4.68 -10 4 C-9.67 4.33 -9.34 4.66 -9 5 C-6.08461971 5.50042146 -6.08461971 5.50042146 -3 5 C-1.1375562 2.59141286 -1.1375562 2.59141286 0 0 Z " fill="#251B12" transform="translate(166,136)"/>
<path d="M0 0 C0.66 0.33 1.32 0.66 2 1 C1.01 2.0209375 1.01 2.0209375 0 3.0625 C-2.50978123 6.74874118 -2.62608836 8.61738151 -2 13 C-0.14283813 15.90809543 -0.14283813 15.90809543 2 18 C-1.01326538 17.67715014 -2.03461538 16.96634616 -4.25 14.8125 C-6.3410429 11.45189534 -6.64819613 9.88917677 -6 6 C-4.20006226 3.30009338 -2.916227 1.4581135 0 0 Z " fill="#E0DFDE" transform="translate(89,128)"/>
<path d="M0 0 C0.66 0.33 1.32 0.66 2 1 C2 1.66 2 2.32 2 3 C1.195625 3.680625 0.39125 4.36125 -0.4375 5.0625 C-3.8100209 8.92856055 -3.88054526 12.01547943 -4 17 C-6 14 -6 14 -6 11 C-6.66 10.67 -7.32 10.34 -8 10 C-7.23721377 8.7035649 -6.46443041 7.41300852 -5.6875 6.125 C-5.25824219 5.40570313 -4.82898438 4.68640625 -4.38671875 3.9453125 C-3 2 -3 2 0 0 Z " fill="#0B0B0B" transform="translate(87,126)"/>
<path d="M0 0 C0.33 0.66 0.66 1.32 1 2 C-3.77941176 6.93872549 -3.77941176 6.93872549 -6.9453125 7.09765625 C-8.96354167 7.06510417 -10.98177083 7.03255208 -13 7 C-13.33 6.34 -13.66 5.68 -14 5 C-13.319375 4.87625 -12.63875 4.7525 -11.9375 4.625 C-5.39362318 3.46642316 -5.39362318 3.46642316 0 0 Z " fill="#050404" transform="translate(101,141)"/>
<path d="M0 0 C1.485 0.99 1.485 0.99 3 2 C4.65549531 2.38499891 6.3222433 2.72793135 8 3 C8 3.66 8 4.32 8 5 C9.32 4.67 10.64 4.34 12 4 C12 4.66 12 5.32 12 6 C4.73846154 6.61538462 4.73846154 6.61538462 1 3.5 C0.34 2.675 -0.32 1.85 -1 1 C-0.67 0.67 -0.34 0.34 0 0 Z " fill="#050404" transform="translate(155,142)"/>
<path d="M0 0 C-0.33 1.32 -0.66 2.64 -1 4 C-2.32 4 -3.64 4 -5 4 C-5.33 2.68 -5.66 1.36 -6 0 C-3.50907189 -1.24546405 -2.58919267 -0.7767578 0 0 Z " fill="#D8D8D8" transform="translate(162,132)"/>
<path d="M0 0 C1.67542976 0.28604898 3.34385343 0.61781233 5 1 C4.67 2.32 4.34 3.64 4 5 C2.68 5 1.36 5 0 5 C-0.5625 3.0625 -0.5625 3.0625 -1 1 C-0.67 0.67 -0.34 0.34 0 0 Z " fill="#DBDBDB" transform="translate(94,131)"/>
<path d="M0 0 C0.33 0.99 0.66 1.98 1 3 C1.66 3 2.32 3 3 3 C2.3125 5.375 2.3125 5.375 1 8 C-1.625 9.3125 -1.625 9.3125 -4 10 C-3.525625 9.278125 -3.05125 8.55625 -2.5625 7.8125 C-1.05847097 5.10524774 -0.43400818 3.03805725 0 0 Z " fill="#DDDCDB" transform="translate(169,136)"/>
<path d="M0 0 C0 3.3 0 6.6 0 10 C-2 7 -2 7 -2 4 C-2.66 3.67 -3.32 3.34 -4 3 C-1.125 0 -1.125 0 0 0 Z " fill="#040404" transform="translate(83,133)"/>
</svg>
